<mxfile host="app.diagrams.net" modified="2023-05-22T14:10:41.881Z" agent="Mozilla/5.0 (Macintosh; Intel Mac OS X 10_15_7) AppleWebKit/537.36 (KHTML, like Gecko) Chrome/113.0.0.0 Safari/537.36" etag="8IpvPCkkXSJ3REt-d9o-" version="21.3.0" type="device">
  <diagram id="L4SUDdpmCuNkv0ebjU9n" name="Page-1">
    <mxGraphModel dx="3168" dy="2048" grid="1" gridSize="10" guides="1" tooltips="1" connect="1" arrows="1" fold="1" page="1" pageScale="1" pageWidth="850" pageHeight="1100" math="0" shadow="0">
      <root>
        <mxCell id="0" />
        <mxCell id="1" parent="0" />
        <mxCell id="D_cj9iEXtC5JJuqYHNEy-64" style="edgeStyle=orthogonalEdgeStyle;rounded=1;orthogonalLoop=1;jettySize=auto;html=1;fontSize=24;entryX=0.5;entryY=1;entryDx=0;entryDy=0;endArrow=none;endFill=0;" parent="1" source="D_cj9iEXtC5JJuqYHNEy-1" target="D_cj9iEXtC5JJuqYHNEy-21" edge="1">
          <mxGeometry relative="1" as="geometry">
            <mxPoint x="425.5" y="479.9999999999998" as="targetPoint" />
          </mxGeometry>
        </mxCell>
        <mxCell id="BTA8NvFiUSvUQII7Zmmq-29" style="edgeStyle=orthogonalEdgeStyle;rounded=0;orthogonalLoop=1;jettySize=auto;html=1;strokeColor=none;" parent="1" source="JX47b9BLDOJrQKx_DXfN-2" target="BTA8NvFiUSvUQII7Zmmq-28" edge="1">
          <mxGeometry relative="1" as="geometry">
            <Array as="points">
              <mxPoint x="450" y="640" />
              <mxPoint x="577" y="640" />
            </Array>
          </mxGeometry>
        </mxCell>
        <mxCell id="BTA8NvFiUSvUQII7Zmmq-30" style="edgeStyle=orthogonalEdgeStyle;rounded=0;orthogonalLoop=1;jettySize=auto;html=1;entryX=0.5;entryY=0;entryDx=0;entryDy=0;strokeColor=none;" parent="1" source="D_cj9iEXtC5JJuqYHNEy-1" target="D_cj9iEXtC5JJuqYHNEy-5" edge="1">
          <mxGeometry relative="1" as="geometry">
            <Array as="points">
              <mxPoint x="426" y="660" />
              <mxPoint x="293" y="660" />
            </Array>
          </mxGeometry>
        </mxCell>
        <mxCell id="BTA8NvFiUSvUQII7Zmmq-31" style="edgeStyle=orthogonalEdgeStyle;rounded=1;orthogonalLoop=1;jettySize=auto;html=1;entryX=0.5;entryY=0;entryDx=0;entryDy=0;endArrow=none;endFill=0;" parent="1" source="D_cj9iEXtC5JJuqYHNEy-1" target="D_cj9iEXtC5JJuqYHNEy-5" edge="1">
          <mxGeometry relative="1" as="geometry">
            <Array as="points">
              <mxPoint x="425" y="670" />
              <mxPoint x="282" y="670" />
            </Array>
          </mxGeometry>
        </mxCell>
        <mxCell id="BTA8NvFiUSvUQII7Zmmq-32" style="edgeStyle=orthogonalEdgeStyle;rounded=1;orthogonalLoop=1;jettySize=auto;html=1;entryX=0;entryY=0.5;entryDx=0;entryDy=0;endArrow=none;endFill=0;" parent="1" source="D_cj9iEXtC5JJuqYHNEy-1" target="BTA8NvFiUSvUQII7Zmmq-28" edge="1">
          <mxGeometry relative="1" as="geometry">
            <Array as="points">
              <mxPoint x="450" y="730" />
              <mxPoint x="570" y="730" />
              <mxPoint x="570" y="820" />
            </Array>
          </mxGeometry>
        </mxCell>
        <mxCell id="BTA8NvFiUSvUQII7Zmmq-56" style="edgeStyle=orthogonalEdgeStyle;rounded=1;orthogonalLoop=1;jettySize=auto;html=1;entryX=0;entryY=0.5;entryDx=0;entryDy=0;endArrow=none;endFill=0;" parent="1" source="D_cj9iEXtC5JJuqYHNEy-1" target="BTA8NvFiUSvUQII7Zmmq-25" edge="1">
          <mxGeometry relative="1" as="geometry">
            <Array as="points">
              <mxPoint x="551" y="580" />
              <mxPoint x="551" y="535" />
            </Array>
          </mxGeometry>
        </mxCell>
        <mxCell id="BTA8NvFiUSvUQII7Zmmq-57" style="edgeStyle=orthogonalEdgeStyle;rounded=1;orthogonalLoop=1;jettySize=auto;html=1;entryX=0;entryY=0.5;entryDx=0;entryDy=0;endArrow=none;endFill=0;" parent="1" source="D_cj9iEXtC5JJuqYHNEy-1" target="BTA8NvFiUSvUQII7Zmmq-24" edge="1">
          <mxGeometry relative="1" as="geometry">
            <Array as="points">
              <mxPoint x="541" y="590" />
              <mxPoint x="541" y="638" />
            </Array>
          </mxGeometry>
        </mxCell>
        <mxCell id="BTA8NvFiUSvUQII7Zmmq-67" style="edgeStyle=orthogonalEdgeStyle;rounded=1;orthogonalLoop=1;jettySize=auto;html=1;entryX=1;entryY=0.5;entryDx=0;entryDy=0;endArrow=none;endFill=0;" parent="1" source="D_cj9iEXtC5JJuqYHNEy-1" target="BTA8NvFiUSvUQII7Zmmq-55" edge="1">
          <mxGeometry relative="1" as="geometry" />
        </mxCell>
        <mxCell id="JX47b9BLDOJrQKx_DXfN-8" style="edgeStyle=orthogonalEdgeStyle;rounded=1;orthogonalLoop=1;jettySize=auto;html=1;exitX=0.75;exitY=1;exitDx=0;exitDy=0;endArrow=none;endFill=0;entryX=0;entryY=0.5;entryDx=0;entryDy=0;" parent="1" source="D_cj9iEXtC5JJuqYHNEy-1" target="JX47b9BLDOJrQKx_DXfN-9" edge="1">
          <mxGeometry relative="1" as="geometry">
            <mxPoint x="1070" y="948" as="targetPoint" />
            <Array as="points">
              <mxPoint x="470" y="620" />
              <mxPoint x="470" y="700" />
              <mxPoint x="890" y="700" />
              <mxPoint x="890" y="948" />
            </Array>
          </mxGeometry>
        </mxCell>
        <mxCell id="D_cj9iEXtC5JJuqYHNEy-1" value="&lt;font style=&quot;font-size: 24px&quot;&gt;KINO&lt;/font&gt;" style="rounded=0;whiteSpace=wrap;html=1;" parent="1" vertex="1">
          <mxGeometry x="348" y="550" width="155" height="70" as="geometry" />
        </mxCell>
        <mxCell id="BTA8NvFiUSvUQII7Zmmq-33" style="edgeStyle=orthogonalEdgeStyle;rounded=1;orthogonalLoop=1;jettySize=auto;html=1;endArrow=none;endFill=0;" parent="1" source="D_cj9iEXtC5JJuqYHNEy-5" target="D_cj9iEXtC5JJuqYHNEy-7" edge="1">
          <mxGeometry relative="1" as="geometry" />
        </mxCell>
        <mxCell id="BTA8NvFiUSvUQII7Zmmq-34" style="edgeStyle=orthogonalEdgeStyle;rounded=1;orthogonalLoop=1;jettySize=auto;html=1;entryX=0.5;entryY=0;entryDx=0;entryDy=0;endArrow=none;endFill=0;" parent="1" source="D_cj9iEXtC5JJuqYHNEy-5" target="D_cj9iEXtC5JJuqYHNEy-6" edge="1">
          <mxGeometry relative="1" as="geometry" />
        </mxCell>
        <mxCell id="D_cj9iEXtC5JJuqYHNEy-5" value="&lt;font style=&quot;font-size: 16px;&quot;&gt;IMA&lt;/font&gt;" style="rhombus;whiteSpace=wrap;html=1;fontSize=24;" parent="1" vertex="1">
          <mxGeometry x="216.75" y="800" width="131.25" height="100" as="geometry" />
        </mxCell>
        <mxCell id="D_cj9iEXtC5JJuqYHNEy-54" style="edgeStyle=orthogonalEdgeStyle;rounded=1;orthogonalLoop=1;jettySize=auto;html=1;entryX=0.5;entryY=0;entryDx=0;entryDy=0;fontSize=24;endArrow=none;endFill=0;" parent="1" source="D_cj9iEXtC5JJuqYHNEy-6" target="D_cj9iEXtC5JJuqYHNEy-14" edge="1">
          <mxGeometry relative="1" as="geometry">
            <Array as="points">
              <mxPoint x="248.75" y="1190" />
              <mxPoint x="248.75" y="1310" />
              <mxPoint x="206.75" y="1310" />
            </Array>
          </mxGeometry>
        </mxCell>
        <mxCell id="D_cj9iEXtC5JJuqYHNEy-55" style="edgeStyle=orthogonalEdgeStyle;rounded=1;orthogonalLoop=1;jettySize=auto;html=1;entryX=0.5;entryY=0;entryDx=0;entryDy=0;fontSize=24;endArrow=none;endFill=0;" parent="1" source="D_cj9iEXtC5JJuqYHNEy-6" target="D_cj9iEXtC5JJuqYHNEy-15" edge="1">
          <mxGeometry relative="1" as="geometry">
            <Array as="points">
              <mxPoint x="378.75" y="1280" />
              <mxPoint x="306.75" y="1280" />
            </Array>
          </mxGeometry>
        </mxCell>
        <mxCell id="D_cj9iEXtC5JJuqYHNEy-56" style="edgeStyle=orthogonalEdgeStyle;rounded=1;orthogonalLoop=1;jettySize=auto;html=1;entryX=0.5;entryY=0;entryDx=0;entryDy=0;fontSize=24;endArrow=none;endFill=0;" parent="1" source="D_cj9iEXtC5JJuqYHNEy-6" target="D_cj9iEXtC5JJuqYHNEy-16" edge="1">
          <mxGeometry relative="1" as="geometry">
            <Array as="points">
              <mxPoint x="418.75" y="1340" />
            </Array>
          </mxGeometry>
        </mxCell>
        <mxCell id="BTA8NvFiUSvUQII7Zmmq-52" style="edgeStyle=orthogonalEdgeStyle;rounded=1;orthogonalLoop=1;jettySize=auto;html=1;entryX=0.5;entryY=0;entryDx=0;entryDy=0;endArrow=none;endFill=0;" parent="1" source="D_cj9iEXtC5JJuqYHNEy-6" target="BTA8NvFiUSvUQII7Zmmq-51" edge="1">
          <mxGeometry relative="1" as="geometry" />
        </mxCell>
        <mxCell id="D_cj9iEXtC5JJuqYHNEy-6" value="&lt;font style=&quot;font-size: 16px&quot;&gt;RASPORED FILMOVA&lt;/font&gt;" style="rounded=0;whiteSpace=wrap;html=1;fontSize=24;" parent="1" vertex="1">
          <mxGeometry x="353.24" y="1160" width="120" height="60" as="geometry" />
        </mxCell>
        <mxCell id="D_cj9iEXtC5JJuqYHNEy-51" style="edgeStyle=orthogonalEdgeStyle;orthogonalLoop=1;jettySize=auto;html=1;entryX=0.5;entryY=0;entryDx=0;entryDy=0;fontSize=24;strokeColor=default;rounded=1;endArrow=none;endFill=0;" parent="1" source="D_cj9iEXtC5JJuqYHNEy-7" target="D_cj9iEXtC5JJuqYHNEy-10" edge="1">
          <mxGeometry relative="1" as="geometry" />
        </mxCell>
        <mxCell id="BTA8NvFiUSvUQII7Zmmq-39" style="edgeStyle=orthogonalEdgeStyle;rounded=1;orthogonalLoop=1;jettySize=auto;html=1;entryX=0.5;entryY=0;entryDx=0;entryDy=0;endArrow=none;endFill=0;exitX=0;exitY=0.5;exitDx=0;exitDy=0;" parent="1" source="D_cj9iEXtC5JJuqYHNEy-7" target="D_cj9iEXtC5JJuqYHNEy-11" edge="1">
          <mxGeometry relative="1" as="geometry">
            <Array as="points">
              <mxPoint x="8.75" y="1020" />
              <mxPoint x="-171.25" y="1020" />
              <mxPoint x="-171.25" y="1130" />
            </Array>
          </mxGeometry>
        </mxCell>
        <mxCell id="BTA8NvFiUSvUQII7Zmmq-40" style="edgeStyle=orthogonalEdgeStyle;rounded=1;orthogonalLoop=1;jettySize=auto;html=1;entryX=0.5;entryY=0;entryDx=0;entryDy=0;endArrow=none;endFill=0;" parent="1" source="D_cj9iEXtC5JJuqYHNEy-7" target="BTA8NvFiUSvUQII7Zmmq-36" edge="1">
          <mxGeometry relative="1" as="geometry">
            <Array as="points">
              <mxPoint x="-51.25" y="1030" />
            </Array>
          </mxGeometry>
        </mxCell>
        <mxCell id="BTA8NvFiUSvUQII7Zmmq-41" style="edgeStyle=orthogonalEdgeStyle;rounded=1;orthogonalLoop=1;jettySize=auto;html=1;entryX=0.5;entryY=0;entryDx=0;entryDy=0;endArrow=none;endFill=0;" parent="1" source="D_cj9iEXtC5JJuqYHNEy-7" target="D_cj9iEXtC5JJuqYHNEy-12" edge="1">
          <mxGeometry relative="1" as="geometry" />
        </mxCell>
        <mxCell id="BTA8NvFiUSvUQII7Zmmq-54" style="edgeStyle=orthogonalEdgeStyle;rounded=1;orthogonalLoop=1;jettySize=auto;html=1;endArrow=none;endFill=0;" parent="1" source="D_cj9iEXtC5JJuqYHNEy-7" target="BTA8NvFiUSvUQII7Zmmq-53" edge="1">
          <mxGeometry relative="1" as="geometry" />
        </mxCell>
        <mxCell id="D_cj9iEXtC5JJuqYHNEy-7" value="&lt;font style=&quot;font-size: 16px&quot;&gt;DVORANA&lt;/font&gt;" style="rounded=0;whiteSpace=wrap;html=1;fontSize=24;" parent="1" vertex="1">
          <mxGeometry x="8.75" y="980" width="120" height="60" as="geometry" />
        </mxCell>
        <mxCell id="D_cj9iEXtC5JJuqYHNEy-58" style="edgeStyle=orthogonalEdgeStyle;rounded=1;orthogonalLoop=1;jettySize=auto;html=1;fontSize=24;endArrow=none;endFill=0;" parent="1" source="D_cj9iEXtC5JJuqYHNEy-8" target="D_cj9iEXtC5JJuqYHNEy-20" edge="1">
          <mxGeometry relative="1" as="geometry" />
        </mxCell>
        <mxCell id="D_cj9iEXtC5JJuqYHNEy-59" style="edgeStyle=orthogonalEdgeStyle;rounded=1;orthogonalLoop=1;jettySize=auto;html=1;fontSize=24;endArrow=none;endFill=0;" parent="1" source="D_cj9iEXtC5JJuqYHNEy-8" target="D_cj9iEXtC5JJuqYHNEy-18" edge="1">
          <mxGeometry relative="1" as="geometry" />
        </mxCell>
        <mxCell id="D_cj9iEXtC5JJuqYHNEy-60" style="edgeStyle=orthogonalEdgeStyle;rounded=1;orthogonalLoop=1;jettySize=auto;html=1;fontSize=24;endArrow=none;endFill=0;" parent="1" source="D_cj9iEXtC5JJuqYHNEy-8" target="D_cj9iEXtC5JJuqYHNEy-19" edge="1">
          <mxGeometry relative="1" as="geometry">
            <Array as="points">
              <mxPoint x="863.75" y="1090" />
              <mxPoint x="948.75" y="1090" />
            </Array>
          </mxGeometry>
        </mxCell>
        <mxCell id="BTA8NvFiUSvUQII7Zmmq-38" style="edgeStyle=orthogonalEdgeStyle;rounded=1;orthogonalLoop=1;jettySize=auto;html=1;entryX=0.5;entryY=0;entryDx=0;entryDy=0;endArrow=none;endFill=0;" parent="1" source="D_cj9iEXtC5JJuqYHNEy-8" target="D_cj9iEXtC5JJuqYHNEy-17" edge="1">
          <mxGeometry relative="1" as="geometry">
            <Array as="points">
              <mxPoint x="800" y="1105" />
              <mxPoint x="711" y="1105" />
            </Array>
          </mxGeometry>
        </mxCell>
        <mxCell id="D_cj9iEXtC5JJuqYHNEy-8" value="&lt;font style=&quot;font-size: 16px&quot;&gt;ZAPOSLENICI&lt;/font&gt;" style="rounded=0;whiteSpace=wrap;html=1;fontSize=24;" parent="1" vertex="1">
          <mxGeometry x="763.75" y="1010" width="120" height="60" as="geometry" />
        </mxCell>
        <mxCell id="D_cj9iEXtC5JJuqYHNEy-10" value="&lt;font style=&quot;font-size: 16px;&quot;&gt;&lt;u&gt;ID_Dvorana&lt;/u&gt;&lt;/font&gt;" style="ellipse;whiteSpace=wrap;html=1;fontSize=24;" parent="1" vertex="1">
          <mxGeometry x="-320" y="1120" width="105" height="70" as="geometry" />
        </mxCell>
        <mxCell id="D_cj9iEXtC5JJuqYHNEy-11" value="&lt;font style=&quot;font-size: 16px;&quot;&gt;TIP&lt;/font&gt;" style="ellipse;whiteSpace=wrap;html=1;fontSize=24;" parent="1" vertex="1">
          <mxGeometry x="-206.25" y="1130" width="75" height="50" as="geometry" />
        </mxCell>
        <mxCell id="D_cj9iEXtC5JJuqYHNEy-12" value="&lt;span style=&quot;font-size: 16px;&quot;&gt;PROJEKCIJA&lt;/span&gt;" style="ellipse;whiteSpace=wrap;html=1;fontSize=24;" parent="1" vertex="1">
          <mxGeometry x="16.25" y="1120" width="105" height="70" as="geometry" />
        </mxCell>
        <mxCell id="D_cj9iEXtC5JJuqYHNEy-14" value="&lt;font style=&quot;font-size: 16px;&quot;&gt;&lt;u&gt;ID_Flima&lt;/u&gt;&lt;/font&gt;" style="ellipse;whiteSpace=wrap;html=1;fontSize=24;" parent="1" vertex="1">
          <mxGeometry x="152.5" y="1345" width="111.25" height="60" as="geometry" />
        </mxCell>
        <mxCell id="D_cj9iEXtC5JJuqYHNEy-15" value="&lt;font style=&quot;font-size: 16px;&quot;&gt;IME&lt;/font&gt;" style="ellipse;whiteSpace=wrap;html=1;fontSize=24;" parent="1" vertex="1">
          <mxGeometry x="268.75" y="1350" width="75" height="50" as="geometry" />
        </mxCell>
        <mxCell id="D_cj9iEXtC5JJuqYHNEy-16" value="&lt;font style=&quot;font-size: 16px;&quot;&gt;KATEGORIJA&lt;/font&gt;" style="ellipse;whiteSpace=wrap;html=1;fontSize=24;" parent="1" vertex="1">
          <mxGeometry x="358.75" y="1340" width="121.99" height="70" as="geometry" />
        </mxCell>
        <mxCell id="D_cj9iEXtC5JJuqYHNEy-17" value="&lt;u&gt;&lt;font style=&quot;font-size: 16px;&quot;&gt;OIB_Zaposlenika&lt;/font&gt;&lt;/u&gt;" style="ellipse;whiteSpace=wrap;html=1;fontSize=24;" parent="1" vertex="1">
          <mxGeometry x="640" y="1140" width="141.25" height="70" as="geometry" />
        </mxCell>
        <mxCell id="D_cj9iEXtC5JJuqYHNEy-18" value="&lt;font style=&quot;font-size: 16px;&quot;&gt;IME&lt;/font&gt;" style="ellipse;whiteSpace=wrap;html=1;fontSize=24;" parent="1" vertex="1">
          <mxGeometry x="786.25" y="1150" width="75" height="50" as="geometry" />
        </mxCell>
        <mxCell id="D_cj9iEXtC5JJuqYHNEy-19" value="&lt;font style=&quot;font-size: 16px;&quot;&gt;PREZIME&lt;/font&gt;" style="ellipse;whiteSpace=wrap;html=1;fontSize=24;" parent="1" vertex="1">
          <mxGeometry x="908.75" y="1150" width="75" height="50" as="geometry" />
        </mxCell>
        <mxCell id="D_cj9iEXtC5JJuqYHNEy-20" value="&lt;span style=&quot;font-size: 16px;&quot;&gt;SMJENA&lt;/span&gt;" style="ellipse;whiteSpace=wrap;html=1;fontSize=24;" parent="1" vertex="1">
          <mxGeometry x="1028.75" y="1150" width="75" height="50" as="geometry" />
        </mxCell>
        <mxCell id="D_cj9iEXtC5JJuqYHNEy-65" style="edgeStyle=orthogonalEdgeStyle;rounded=1;orthogonalLoop=1;jettySize=auto;html=1;entryX=0.5;entryY=1;entryDx=0;entryDy=0;fontSize=24;endArrow=none;endFill=0;" parent="1" source="D_cj9iEXtC5JJuqYHNEy-21" target="D_cj9iEXtC5JJuqYHNEy-22" edge="1">
          <mxGeometry relative="1" as="geometry" />
        </mxCell>
        <mxCell id="D_cj9iEXtC5JJuqYHNEy-66" style="edgeStyle=orthogonalEdgeStyle;rounded=1;orthogonalLoop=1;jettySize=auto;html=1;entryX=0.5;entryY=1;entryDx=0;entryDy=0;fontSize=24;endArrow=none;endFill=0;" parent="1" source="D_cj9iEXtC5JJuqYHNEy-21" target="D_cj9iEXtC5JJuqYHNEy-26" edge="1">
          <mxGeometry relative="1" as="geometry" />
        </mxCell>
        <mxCell id="D_cj9iEXtC5JJuqYHNEy-21" value="&lt;span style=&quot;font-size: 16px;&quot;&gt;ODREĐUJE&lt;/span&gt;" style="rhombus;whiteSpace=wrap;html=1;fontSize=24;" parent="1" vertex="1">
          <mxGeometry x="356" y="350" width="139" height="92.69" as="geometry" />
        </mxCell>
        <mxCell id="D_cj9iEXtC5JJuqYHNEy-68" style="edgeStyle=orthogonalEdgeStyle;rounded=1;orthogonalLoop=1;jettySize=auto;html=1;entryX=0.5;entryY=1;entryDx=0;entryDy=0;fontSize=24;endArrow=none;endFill=0;" parent="1" source="D_cj9iEXtC5JJuqYHNEy-22" target="D_cj9iEXtC5JJuqYHNEy-23" edge="1">
          <mxGeometry relative="1" as="geometry" />
        </mxCell>
        <mxCell id="BTA8NvFiUSvUQII7Zmmq-43" style="edgeStyle=orthogonalEdgeStyle;rounded=1;orthogonalLoop=1;jettySize=auto;html=1;endArrow=none;endFill=0;" parent="1" source="D_cj9iEXtC5JJuqYHNEy-22" target="BTA8NvFiUSvUQII7Zmmq-42" edge="1">
          <mxGeometry relative="1" as="geometry" />
        </mxCell>
        <mxCell id="BTA8NvFiUSvUQII7Zmmq-44" style="edgeStyle=orthogonalEdgeStyle;rounded=1;orthogonalLoop=1;jettySize=auto;html=1;endArrow=none;endFill=0;" parent="1" source="D_cj9iEXtC5JJuqYHNEy-22" target="D_cj9iEXtC5JJuqYHNEy-25" edge="1">
          <mxGeometry relative="1" as="geometry">
            <Array as="points">
              <mxPoint x="245" y="210" />
              <mxPoint x="245" y="210" />
            </Array>
          </mxGeometry>
        </mxCell>
        <mxCell id="BTA8NvFiUSvUQII7Zmmq-45" style="edgeStyle=orthogonalEdgeStyle;rounded=1;orthogonalLoop=1;jettySize=auto;html=1;entryX=0.5;entryY=1;entryDx=0;entryDy=0;endArrow=none;endFill=0;" parent="1" source="D_cj9iEXtC5JJuqYHNEy-22" target="D_cj9iEXtC5JJuqYHNEy-24" edge="1">
          <mxGeometry relative="1" as="geometry">
            <Array as="points">
              <mxPoint x="200" y="200" />
              <mxPoint x="98" y="200" />
            </Array>
          </mxGeometry>
        </mxCell>
        <mxCell id="D_cj9iEXtC5JJuqYHNEy-22" value="&lt;font style=&quot;font-size: 16px&quot;&gt;CJENIK&lt;/font&gt;" style="rounded=0;whiteSpace=wrap;html=1;fontSize=24;" parent="1" vertex="1">
          <mxGeometry x="167.5" y="230" width="120" height="60" as="geometry" />
        </mxCell>
        <mxCell id="D_cj9iEXtC5JJuqYHNEy-23" value="&lt;font style=&quot;font-size: 16px;&quot;&gt;&lt;u&gt;ID_Cijenik&lt;/u&gt;&lt;/font&gt;" style="ellipse;whiteSpace=wrap;html=1;fontSize=24;" parent="1" vertex="1">
          <mxGeometry x="-75" y="50" width="95" height="75" as="geometry" />
        </mxCell>
        <mxCell id="D_cj9iEXtC5JJuqYHNEy-24" value="&lt;font style=&quot;font-size: 16px;&quot;&gt;&lt;font style=&quot;font-size: 16px;&quot;&gt;DATU&lt;/font&gt;M&lt;/font&gt;" style="ellipse;whiteSpace=wrap;html=1;fontSize=24;" parent="1" vertex="1">
          <mxGeometry x="55" y="60" width="85" height="60" as="geometry" />
        </mxCell>
        <mxCell id="D_cj9iEXtC5JJuqYHNEy-25" value="&lt;font style=&quot;font-size: 16px;&quot;&gt;VRSTA PROJEKCIJE&lt;/font&gt;" style="ellipse;whiteSpace=wrap;html=1;fontSize=24;" parent="1" vertex="1">
          <mxGeometry x="173.67000000000002" y="55" width="143.33" height="80" as="geometry" />
        </mxCell>
        <mxCell id="D_cj9iEXtC5JJuqYHNEy-70" style="edgeStyle=orthogonalEdgeStyle;rounded=1;orthogonalLoop=1;jettySize=auto;html=1;entryX=0.5;entryY=1;entryDx=0;entryDy=0;fontSize=24;endArrow=none;endFill=0;" parent="1" source="D_cj9iEXtC5JJuqYHNEy-26" target="D_cj9iEXtC5JJuqYHNEy-27" edge="1">
          <mxGeometry relative="1" as="geometry">
            <Array as="points">
              <mxPoint x="620" y="70" />
              <mxPoint x="548" y="70" />
            </Array>
          </mxGeometry>
        </mxCell>
        <mxCell id="D_cj9iEXtC5JJuqYHNEy-72" style="edgeStyle=orthogonalEdgeStyle;rounded=1;orthogonalLoop=1;jettySize=auto;html=1;entryX=0;entryY=0.5;entryDx=0;entryDy=0;fontSize=24;endArrow=none;endFill=0;exitX=0.75;exitY=0;exitDx=0;exitDy=0;" parent="1" source="D_cj9iEXtC5JJuqYHNEy-1" target="D_cj9iEXtC5JJuqYHNEy-29" edge="1">
          <mxGeometry relative="1" as="geometry">
            <Array as="points">
              <mxPoint x="464" y="480" />
              <mxPoint x="795" y="480" />
              <mxPoint x="795" y="260" />
            </Array>
          </mxGeometry>
        </mxCell>
        <mxCell id="BTA8NvFiUSvUQII7Zmmq-47" style="edgeStyle=orthogonalEdgeStyle;rounded=1;orthogonalLoop=1;jettySize=auto;html=1;entryX=0.5;entryY=1;entryDx=0;entryDy=0;endArrow=none;endFill=0;" parent="1" source="D_cj9iEXtC5JJuqYHNEy-26" target="D_cj9iEXtC5JJuqYHNEy-28" edge="1">
          <mxGeometry relative="1" as="geometry">
            <Array as="points">
              <mxPoint x="650" y="200" />
              <mxPoint x="650" y="200" />
            </Array>
          </mxGeometry>
        </mxCell>
        <mxCell id="BTA8NvFiUSvUQII7Zmmq-49" style="edgeStyle=orthogonalEdgeStyle;rounded=1;orthogonalLoop=1;jettySize=auto;html=1;endArrow=none;endFill=0;" parent="1" source="D_cj9iEXtC5JJuqYHNEy-26" target="BTA8NvFiUSvUQII7Zmmq-46" edge="1">
          <mxGeometry relative="1" as="geometry">
            <Array as="points">
              <mxPoint x="670" y="210" />
              <mxPoint x="700" y="210" />
              <mxPoint x="700" y="70" />
              <mxPoint x="778" y="70" />
            </Array>
          </mxGeometry>
        </mxCell>
        <mxCell id="59wHrg0JcHNPSCHJGL91-3" style="edgeStyle=orthogonalEdgeStyle;rounded=1;orthogonalLoop=1;jettySize=auto;html=1;entryX=0.5;entryY=1;entryDx=0;entryDy=0;endArrow=none;endFill=0;" edge="1" parent="1" source="D_cj9iEXtC5JJuqYHNEy-26" target="59wHrg0JcHNPSCHJGL91-2">
          <mxGeometry relative="1" as="geometry">
            <Array as="points">
              <mxPoint x="750" y="260" />
              <mxPoint x="750" y="100" />
              <mxPoint x="944" y="100" />
            </Array>
          </mxGeometry>
        </mxCell>
        <mxCell id="59wHrg0JcHNPSCHJGL91-6" style="edgeStyle=orthogonalEdgeStyle;rounded=1;orthogonalLoop=1;jettySize=auto;html=1;entryX=0.5;entryY=0;entryDx=0;entryDy=0;endArrow=none;endFill=0;" edge="1" parent="1" source="D_cj9iEXtC5JJuqYHNEy-26" target="59wHrg0JcHNPSCHJGL91-4">
          <mxGeometry relative="1" as="geometry">
            <Array as="points">
              <mxPoint x="460" y="260" />
              <mxPoint x="460" />
              <mxPoint x="-505" />
            </Array>
          </mxGeometry>
        </mxCell>
        <mxCell id="D_cj9iEXtC5JJuqYHNEy-26" value="&lt;font style=&quot;font-size: 16px&quot;&gt;REZRVACIJA&lt;/font&gt;" style="rounded=0;whiteSpace=wrap;html=1;fontSize=24;" parent="1" vertex="1">
          <mxGeometry x="585" y="230" width="120" height="60" as="geometry" />
        </mxCell>
        <mxCell id="D_cj9iEXtC5JJuqYHNEy-27" value="&lt;font style=&quot;font-size: 16px;&quot;&gt;&lt;u&gt;ID_Rezervacija&lt;/u&gt;&lt;/font&gt;" style="ellipse;whiteSpace=wrap;html=1;fontSize=24;" parent="1" vertex="1">
          <mxGeometry x="490" y="-45" width="117" height="80" as="geometry" />
        </mxCell>
        <mxCell id="D_cj9iEXtC5JJuqYHNEy-28" value="&lt;font style=&quot;font-size: 16px;&quot;&gt;DATUM&lt;/font&gt;" style="ellipse;whiteSpace=wrap;html=1;fontSize=24;" parent="1" vertex="1">
          <mxGeometry x="612.5" y="-32.5" width="75" height="50" as="geometry" />
        </mxCell>
        <mxCell id="D_cj9iEXtC5JJuqYHNEy-73" style="edgeStyle=orthogonalEdgeStyle;rounded=1;orthogonalLoop=1;jettySize=auto;html=1;fontSize=24;endArrow=none;endFill=0;" parent="1" source="D_cj9iEXtC5JJuqYHNEy-29" edge="1">
          <mxGeometry relative="1" as="geometry">
            <Array as="points">
              <mxPoint x="1150" y="260" />
            </Array>
            <mxPoint x="1150" y="262" as="targetPoint" />
          </mxGeometry>
        </mxCell>
        <mxCell id="D_cj9iEXtC5JJuqYHNEy-29" value="&lt;font style=&quot;font-size: 16px;&quot;&gt;SADRŽI&lt;/font&gt;" style="rhombus;whiteSpace=wrap;html=1;fontSize=24;" parent="1" vertex="1">
          <mxGeometry x="885" y="232.31" width="90" height="55.38" as="geometry" />
        </mxCell>
        <mxCell id="D_cj9iEXtC5JJuqYHNEy-74" style="edgeStyle=orthogonalEdgeStyle;rounded=1;orthogonalLoop=1;jettySize=auto;html=1;entryX=0.5;entryY=1;entryDx=0;entryDy=0;fontSize=24;endArrow=none;endFill=0;" parent="1" source="D_cj9iEXtC5JJuqYHNEy-30" target="D_cj9iEXtC5JJuqYHNEy-31" edge="1">
          <mxGeometry relative="1" as="geometry">
            <Array as="points">
              <mxPoint x="1180" y="200" />
              <mxPoint x="1073" y="200" />
            </Array>
          </mxGeometry>
        </mxCell>
        <mxCell id="D_cj9iEXtC5JJuqYHNEy-75" style="edgeStyle=orthogonalEdgeStyle;rounded=1;orthogonalLoop=1;jettySize=auto;html=1;entryX=0.5;entryY=1;entryDx=0;entryDy=0;fontSize=24;endArrow=none;endFill=0;" parent="1" source="D_cj9iEXtC5JJuqYHNEy-30" target="D_cj9iEXtC5JJuqYHNEy-32" edge="1">
          <mxGeometry relative="1" as="geometry" />
        </mxCell>
        <mxCell id="D_cj9iEXtC5JJuqYHNEy-76" style="edgeStyle=orthogonalEdgeStyle;rounded=1;orthogonalLoop=1;jettySize=auto;html=1;entryX=0.5;entryY=1;entryDx=0;entryDy=0;fontSize=24;endArrow=none;endFill=0;" parent="1" source="D_cj9iEXtC5JJuqYHNEy-30" target="D_cj9iEXtC5JJuqYHNEy-33" edge="1">
          <mxGeometry relative="1" as="geometry">
            <Array as="points">
              <mxPoint x="1240" y="190" />
              <mxPoint x="1316" y="190" />
            </Array>
          </mxGeometry>
        </mxCell>
        <mxCell id="BTA8NvFiUSvUQII7Zmmq-19" style="edgeStyle=orthogonalEdgeStyle;rounded=1;orthogonalLoop=1;jettySize=auto;html=1;endArrow=none;endFill=0;entryX=0.5;entryY=0;entryDx=0;entryDy=0;" parent="1" source="D_cj9iEXtC5JJuqYHNEy-30" target="BTA8NvFiUSvUQII7Zmmq-1" edge="1">
          <mxGeometry relative="1" as="geometry">
            <Array as="points">
              <mxPoint x="1207" y="530" />
              <mxPoint x="1138" y="530" />
            </Array>
          </mxGeometry>
        </mxCell>
        <mxCell id="BTA8NvFiUSvUQII7Zmmq-20" style="edgeStyle=orthogonalEdgeStyle;rounded=0;orthogonalLoop=1;jettySize=auto;html=1;endArrow=none;endFill=0;" parent="1" source="D_cj9iEXtC5JJuqYHNEy-30" target="BTA8NvFiUSvUQII7Zmmq-2" edge="1">
          <mxGeometry relative="1" as="geometry" />
        </mxCell>
        <mxCell id="D_cj9iEXtC5JJuqYHNEy-30" value="RAČUN" style="rounded=0;whiteSpace=wrap;html=1;fontSize=24;" parent="1" vertex="1">
          <mxGeometry x="1150" y="232" width="120" height="60" as="geometry" />
        </mxCell>
        <mxCell id="D_cj9iEXtC5JJuqYHNEy-31" value="&lt;u&gt;&lt;font style=&quot;font-size: 16px;&quot;&gt;ID_Račun&lt;br&gt;&lt;/font&gt;&lt;/u&gt;" style="ellipse;whiteSpace=wrap;html=1;fontSize=24;" parent="1" vertex="1">
          <mxGeometry x="1023.75" y="70" width="97.5" height="60" as="geometry" />
        </mxCell>
        <mxCell id="D_cj9iEXtC5JJuqYHNEy-32" value="&lt;font style=&quot;font-size: 16px;&quot;&gt;DATUM&lt;/font&gt;" style="ellipse;whiteSpace=wrap;html=1;fontSize=24;" parent="1" vertex="1">
          <mxGeometry x="1172.5" y="80" width="75" height="50" as="geometry" />
        </mxCell>
        <mxCell id="D_cj9iEXtC5JJuqYHNEy-33" value="&lt;font style=&quot;font-size: 16px;&quot;&gt;PLAĆANJE&lt;/font&gt;" style="ellipse;whiteSpace=wrap;html=1;fontSize=24;" parent="1" vertex="1">
          <mxGeometry x="1272.5" y="80" width="87.5" height="50" as="geometry" />
        </mxCell>
        <mxCell id="IjCK19rcw6wT9SKchdQO-4" value="&lt;span style=&quot;font-size: 20px;&quot;&gt;1&lt;/span&gt;" style="text;html=1;align=center;verticalAlign=middle;resizable=0;points=[];autosize=1;strokeColor=none;fillColor=none;" parent="1" vertex="1">
          <mxGeometry x="1150" y="633.6" width="30" height="40" as="geometry" />
        </mxCell>
        <mxCell id="IjCK19rcw6wT9SKchdQO-6" value="&lt;font style=&quot;font-size: 20px;&quot;&gt;1&lt;/font&gt;" style="text;html=1;align=center;verticalAlign=middle;resizable=0;points=[];autosize=1;strokeColor=none;fillColor=none;" parent="1" vertex="1">
          <mxGeometry x="1375" y="220" width="30" height="40" as="geometry" />
        </mxCell>
        <mxCell id="IjCK19rcw6wT9SKchdQO-12" value="&lt;span style=&quot;font-size: 20px;&quot;&gt;1&lt;/span&gt;" style="text;html=1;align=center;verticalAlign=middle;resizable=0;points=[];autosize=1;strokeColor=none;fillColor=none;" parent="1" vertex="1">
          <mxGeometry x="850" y="220" width="30" height="40" as="geometry" />
        </mxCell>
        <mxCell id="IjCK19rcw6wT9SKchdQO-13" value="&lt;font style=&quot;font-size: 20px;&quot;&gt;N&lt;/font&gt;" style="text;html=1;align=center;verticalAlign=middle;resizable=0;points=[];autosize=1;strokeColor=none;fillColor=none;" parent="1" vertex="1">
          <mxGeometry x="975" y="220" width="40" height="40" as="geometry" />
        </mxCell>
        <mxCell id="IjCK19rcw6wT9SKchdQO-15" value="1" style="text;whiteSpace=wrap;html=1;fontSize=20;align=center;" parent="1" vertex="1">
          <mxGeometry x="382" y="435.38" width="60" height="40" as="geometry" />
        </mxCell>
        <mxCell id="IjCK19rcw6wT9SKchdQO-16" value="&lt;font style=&quot;font-size: 20px;&quot;&gt;M&lt;/font&gt;" style="text;html=1;align=center;verticalAlign=middle;resizable=0;points=[];autosize=1;strokeColor=none;fillColor=none;" parent="1" vertex="1">
          <mxGeometry x="343.75" y="350" width="40" height="40" as="geometry" />
        </mxCell>
        <mxCell id="IjCK19rcw6wT9SKchdQO-17" value="&lt;font style=&quot;font-size: 20px;&quot;&gt;P&lt;/font&gt;" style="text;whiteSpace=wrap;html=1;" parent="1" vertex="1">
          <mxGeometry x="197.5" y="810" width="22.5" height="40" as="geometry" />
        </mxCell>
        <mxCell id="IjCK19rcw6wT9SKchdQO-19" value="&lt;font style=&quot;font-size: 20px;&quot;&gt;N&lt;/font&gt;" style="text;html=1;align=center;verticalAlign=middle;resizable=0;points=[];autosize=1;strokeColor=none;fillColor=none;" parent="1" vertex="1">
          <mxGeometry x="723.75" y="779.81" width="40" height="40" as="geometry" />
        </mxCell>
        <mxCell id="IjCK19rcw6wT9SKchdQO-21" value="&lt;font style=&quot;font-size: 20px;&quot;&gt;1&lt;/font&gt;" style="text;html=1;align=center;verticalAlign=middle;resizable=0;points=[];autosize=1;strokeColor=none;fillColor=none;" parent="1" vertex="1">
          <mxGeometry x="250" y="750" width="30" height="40" as="geometry" />
        </mxCell>
        <mxCell id="JX47b9BLDOJrQKx_DXfN-24" style="edgeStyle=orthogonalEdgeStyle;rounded=1;orthogonalLoop=1;jettySize=auto;html=1;exitX=1;exitY=0.5;exitDx=0;exitDy=0;entryX=0;entryY=0.5;entryDx=0;entryDy=0;endArrow=none;endFill=0;" parent="1" source="BTA8NvFiUSvUQII7Zmmq-1" target="JX47b9BLDOJrQKx_DXfN-23" edge="1">
          <mxGeometry relative="1" as="geometry" />
        </mxCell>
        <mxCell id="59wHrg0JcHNPSCHJGL91-20" style="edgeStyle=orthogonalEdgeStyle;rounded=1;orthogonalLoop=1;jettySize=auto;html=1;entryX=0.75;entryY=0;entryDx=0;entryDy=0;endArrow=none;endFill=0;" edge="1" parent="1" source="BTA8NvFiUSvUQII7Zmmq-1" target="D_cj9iEXtC5JJuqYHNEy-8">
          <mxGeometry relative="1" as="geometry">
            <Array as="points">
              <mxPoint x="1138" y="810" />
              <mxPoint x="854" y="810" />
            </Array>
          </mxGeometry>
        </mxCell>
        <mxCell id="BTA8NvFiUSvUQII7Zmmq-1" value="&lt;font style=&quot;font-size: 16px;&quot;&gt;IZDAJE&lt;/font&gt;" style="rhombus;whiteSpace=wrap;html=1;fontSize=24;" parent="1" vertex="1">
          <mxGeometry x="1075" y="561.01" width="125" height="75.38" as="geometry" />
        </mxCell>
        <mxCell id="BTA8NvFiUSvUQII7Zmmq-22" style="edgeStyle=orthogonalEdgeStyle;rounded=0;orthogonalLoop=1;jettySize=auto;html=1;entryX=0;entryY=0.5;entryDx=0;entryDy=0;endArrow=none;endFill=0;" parent="1" source="BTA8NvFiUSvUQII7Zmmq-2" target="BTA8NvFiUSvUQII7Zmmq-6" edge="1">
          <mxGeometry relative="1" as="geometry" />
        </mxCell>
        <mxCell id="BTA8NvFiUSvUQII7Zmmq-2" value="&lt;font style=&quot;font-size: 16px;&quot;&gt;TRAŽI&lt;/font&gt;" style="rhombus;whiteSpace=wrap;html=1;fontSize=24;" parent="1" vertex="1">
          <mxGeometry x="1410" y="234.62" width="90" height="55.38" as="geometry" />
        </mxCell>
        <mxCell id="BTA8NvFiUSvUQII7Zmmq-3" style="edgeStyle=orthogonalEdgeStyle;rounded=1;orthogonalLoop=1;jettySize=auto;html=1;entryX=0;entryY=0.5;entryDx=0;entryDy=0;fontSize=24;endArrow=none;endFill=0;" parent="1" source="BTA8NvFiUSvUQII7Zmmq-6" target="BTA8NvFiUSvUQII7Zmmq-8" edge="1">
          <mxGeometry relative="1" as="geometry" />
        </mxCell>
        <mxCell id="BTA8NvFiUSvUQII7Zmmq-4" style="edgeStyle=orthogonalEdgeStyle;rounded=1;orthogonalLoop=1;jettySize=auto;html=1;entryX=0;entryY=0.5;entryDx=0;entryDy=0;fontSize=24;endArrow=none;endFill=0;" parent="1" target="BTA8NvFiUSvUQII7Zmmq-9" edge="1">
          <mxGeometry relative="1" as="geometry">
            <Array as="points">
              <mxPoint x="1692" y="316" />
            </Array>
            <mxPoint x="1692.25" y="276.15" as="sourcePoint" />
          </mxGeometry>
        </mxCell>
        <mxCell id="BTA8NvFiUSvUQII7Zmmq-5" style="edgeStyle=orthogonalEdgeStyle;rounded=1;orthogonalLoop=1;jettySize=auto;html=1;entryX=0;entryY=0.5;entryDx=0;entryDy=0;fontSize=24;endArrow=none;endFill=0;" parent="1" source="BTA8NvFiUSvUQII7Zmmq-6" target="BTA8NvFiUSvUQII7Zmmq-7" edge="1">
          <mxGeometry relative="1" as="geometry">
            <Array as="points">
              <mxPoint x="1732.5" y="135" />
            </Array>
          </mxGeometry>
        </mxCell>
        <mxCell id="BTA8NvFiUSvUQII7Zmmq-6" value="&lt;font style=&quot;font-size: 18px;&quot;&gt;MUŠTERIJA&lt;/font&gt;" style="rounded=0;whiteSpace=wrap;html=1;fontSize=24;" parent="1" vertex="1">
          <mxGeometry x="1632.5" y="232.31000000000006" width="120" height="60" as="geometry" />
        </mxCell>
        <mxCell id="BTA8NvFiUSvUQII7Zmmq-7" value="&lt;u&gt;&lt;font style=&quot;font-size: 16px;&quot;&gt;OIB_Mušterija&lt;/font&gt;&lt;/u&gt;" style="ellipse;whiteSpace=wrap;html=1;fontSize=24;" parent="1" vertex="1">
          <mxGeometry x="1872.5" y="100" width="105" height="70" as="geometry" />
        </mxCell>
        <mxCell id="BTA8NvFiUSvUQII7Zmmq-8" value="&lt;font style=&quot;font-size: 16px;&quot;&gt;IME&amp;nbsp;&lt;/font&gt;" style="ellipse;whiteSpace=wrap;html=1;fontSize=24;" parent="1" vertex="1">
          <mxGeometry x="1872.5" y="200" width="75" height="50" as="geometry" />
        </mxCell>
        <mxCell id="BTA8NvFiUSvUQII7Zmmq-9" value="&lt;font style=&quot;font-size: 16px;&quot;&gt;PREZIME&lt;/font&gt;" style="ellipse;whiteSpace=wrap;html=1;fontSize=24;" parent="1" vertex="1">
          <mxGeometry x="1872.5" y="290" width="78.47" height="52.31" as="geometry" />
        </mxCell>
        <mxCell id="BTA8NvFiUSvUQII7Zmmq-17" value="&lt;span style=&quot;font-size: 20px;&quot;&gt;M&lt;/span&gt;" style="text;html=1;align=center;verticalAlign=middle;resizable=0;points=[];autosize=1;strokeColor=none;fillColor=none;" parent="1" vertex="1">
          <mxGeometry x="1090" y="528.7" width="40" height="40" as="geometry" />
        </mxCell>
        <mxCell id="BTA8NvFiUSvUQII7Zmmq-23" value="&lt;font style=&quot;font-size: 20px;&quot;&gt;M&lt;/font&gt;" style="text;html=1;align=center;verticalAlign=middle;resizable=0;points=[];autosize=1;strokeColor=none;fillColor=none;" parent="1" vertex="1">
          <mxGeometry x="1500" y="220" width="40" height="40" as="geometry" />
        </mxCell>
        <mxCell id="BTA8NvFiUSvUQII7Zmmq-24" value="&lt;font style=&quot;font-size: 16px;&quot;&gt;LOKACIJA&lt;/font&gt;" style="ellipse;whiteSpace=wrap;html=1;fontSize=24;" parent="1" vertex="1">
          <mxGeometry x="578.75" y="610" width="100" height="55" as="geometry" />
        </mxCell>
        <mxCell id="BTA8NvFiUSvUQII7Zmmq-25" value="&lt;font style=&quot;font-size: 16px;&quot;&gt;&lt;u&gt;ID_Kina&lt;/u&gt;&lt;/font&gt;" style="ellipse;whiteSpace=wrap;html=1;fontSize=24;" parent="1" vertex="1">
          <mxGeometry x="598.75" y="510" width="71.25" height="45" as="geometry" />
        </mxCell>
        <mxCell id="BTA8NvFiUSvUQII7Zmmq-35" style="edgeStyle=orthogonalEdgeStyle;rounded=1;orthogonalLoop=1;jettySize=auto;html=1;entryX=0.5;entryY=0;entryDx=0;entryDy=0;endArrow=none;endFill=0;" parent="1" source="BTA8NvFiUSvUQII7Zmmq-28" target="D_cj9iEXtC5JJuqYHNEy-8" edge="1">
          <mxGeometry relative="1" as="geometry" />
        </mxCell>
        <mxCell id="BTA8NvFiUSvUQII7Zmmq-28" value="&lt;font style=&quot;font-size: 16px;&quot;&gt;RADI_ZA&lt;/font&gt;" style="rhombus;whiteSpace=wrap;html=1;fontSize=24;" parent="1" vertex="1">
          <mxGeometry x="612.5" y="779.81" width="107.5" height="80" as="geometry" />
        </mxCell>
        <mxCell id="BTA8NvFiUSvUQII7Zmmq-36" value="&lt;font style=&quot;font-size: 16px;&quot;&gt;VELIČINA&lt;/font&gt;" style="ellipse;whiteSpace=wrap;html=1;fontSize=24;" parent="1" vertex="1">
          <mxGeometry x="-96.25" y="1130" width="90" height="60" as="geometry" />
        </mxCell>
        <mxCell id="BTA8NvFiUSvUQII7Zmmq-42" value="&lt;span style=&quot;font-size: 16px;&quot;&gt;CIJENA ULAZNICE&lt;/span&gt;" style="ellipse;whiteSpace=wrap;html=1;fontSize=24;" parent="1" vertex="1">
          <mxGeometry x="335.75" y="57.5" width="106.25" height="75" as="geometry" />
        </mxCell>
        <mxCell id="BTA8NvFiUSvUQII7Zmmq-46" value="&lt;font style=&quot;font-size: 16px;&quot;&gt;RED SJEDALA&lt;/font&gt;" style="ellipse;whiteSpace=wrap;html=1;fontSize=24;" parent="1" vertex="1">
          <mxGeometry x="717.74" y="-60" width="120" height="80" as="geometry" />
        </mxCell>
        <mxCell id="BTA8NvFiUSvUQII7Zmmq-51" value="&lt;span style=&quot;font-size: 16px;&quot;&gt;TRAJANJE FILMA&lt;/span&gt;" style="ellipse;whiteSpace=wrap;html=1;fontSize=24;" parent="1" vertex="1">
          <mxGeometry x="508.75" y="1340" width="121.99" height="70" as="geometry" />
        </mxCell>
        <mxCell id="BTA8NvFiUSvUQII7Zmmq-53" value="&lt;font style=&quot;font-size: 12px;&quot;&gt;POPUNJENOST&lt;/font&gt;" style="ellipse;whiteSpace=wrap;html=1;fontSize=24;" parent="1" vertex="1">
          <mxGeometry x="141.25" y="1110" width="97.5" height="65" as="geometry" />
        </mxCell>
        <mxCell id="BTA8NvFiUSvUQII7Zmmq-68" style="edgeStyle=orthogonalEdgeStyle;rounded=1;orthogonalLoop=1;jettySize=auto;html=1;entryX=1;entryY=0.5;entryDx=0;entryDy=0;endArrow=none;endFill=0;" parent="1" source="BTA8NvFiUSvUQII7Zmmq-55" target="BTA8NvFiUSvUQII7Zmmq-58" edge="1">
          <mxGeometry relative="1" as="geometry" />
        </mxCell>
        <mxCell id="BTA8NvFiUSvUQII7Zmmq-55" value="&lt;font style=&quot;font-size: 16px;&quot;&gt;STANJE&lt;/font&gt;" style="rhombus;whiteSpace=wrap;html=1;fontSize=24;" parent="1" vertex="1">
          <mxGeometry x="152.5" y="555" width="86.25" height="60" as="geometry" />
        </mxCell>
        <mxCell id="BTA8NvFiUSvUQII7Zmmq-63" style="edgeStyle=orthogonalEdgeStyle;rounded=1;orthogonalLoop=1;jettySize=auto;html=1;entryX=1;entryY=0.5;entryDx=0;entryDy=0;exitX=0.5;exitY=0;exitDx=0;exitDy=0;endArrow=none;endFill=0;" parent="1" source="BTA8NvFiUSvUQII7Zmmq-58" target="BTA8NvFiUSvUQII7Zmmq-62" edge="1">
          <mxGeometry relative="1" as="geometry" />
        </mxCell>
        <mxCell id="BTA8NvFiUSvUQII7Zmmq-64" style="edgeStyle=orthogonalEdgeStyle;rounded=1;orthogonalLoop=1;jettySize=auto;html=1;entryX=1;entryY=0.5;entryDx=0;entryDy=0;endArrow=none;endFill=0;" parent="1" source="BTA8NvFiUSvUQII7Zmmq-58" target="BTA8NvFiUSvUQII7Zmmq-59" edge="1">
          <mxGeometry relative="1" as="geometry">
            <Array as="points">
              <mxPoint x="-113.75" y="564.81" />
              <mxPoint x="-113.75" y="514.81" />
            </Array>
          </mxGeometry>
        </mxCell>
        <mxCell id="BTA8NvFiUSvUQII7Zmmq-65" style="edgeStyle=orthogonalEdgeStyle;rounded=1;orthogonalLoop=1;jettySize=auto;html=1;endArrow=none;endFill=0;" parent="1" source="BTA8NvFiUSvUQII7Zmmq-58" target="BTA8NvFiUSvUQII7Zmmq-60" edge="1">
          <mxGeometry relative="1" as="geometry">
            <Array as="points">
              <mxPoint x="-114.75" y="604.81" />
              <mxPoint x="-114.75" y="634.81" />
            </Array>
          </mxGeometry>
        </mxCell>
        <mxCell id="BTA8NvFiUSvUQII7Zmmq-66" style="edgeStyle=orthogonalEdgeStyle;rounded=1;orthogonalLoop=1;jettySize=auto;html=1;entryX=1;entryY=0.5;entryDx=0;entryDy=0;exitX=0.5;exitY=1;exitDx=0;exitDy=0;endArrow=none;endFill=0;" parent="1" source="BTA8NvFiUSvUQII7Zmmq-58" target="BTA8NvFiUSvUQII7Zmmq-61" edge="1">
          <mxGeometry relative="1" as="geometry" />
        </mxCell>
        <mxCell id="BTA8NvFiUSvUQII7Zmmq-58" value="&lt;font style=&quot;font-size: 16px&quot;&gt;IZVJEŠTAJ&lt;/font&gt;" style="rounded=0;whiteSpace=wrap;html=1;fontSize=24;" parent="1" vertex="1">
          <mxGeometry x="-78.75" y="554.81" width="120" height="60" as="geometry" />
        </mxCell>
        <mxCell id="BTA8NvFiUSvUQII7Zmmq-59" value="&lt;font style=&quot;font-size: 15px;&quot;&gt;POSJEĆENOST&lt;/font&gt;" style="ellipse;whiteSpace=wrap;html=1;fontSize=24;" parent="1" vertex="1">
          <mxGeometry x="-268.75" y="474.81" width="120" height="80" as="geometry" />
        </mxCell>
        <mxCell id="BTA8NvFiUSvUQII7Zmmq-60" value="&lt;font style=&quot;font-size: 14px;&quot;&gt;POPUNJENOST DVORANA&lt;/font&gt;" style="ellipse;whiteSpace=wrap;html=1;fontSize=24;" parent="1" vertex="1">
          <mxGeometry x="-270" y="594.81" width="120" height="80" as="geometry" />
        </mxCell>
        <mxCell id="BTA8NvFiUSvUQII7Zmmq-61" value="&lt;font style=&quot;font-size: 16px;&quot;&gt;PRIHODI&lt;/font&gt;" style="ellipse;whiteSpace=wrap;html=1;fontSize=24;" parent="1" vertex="1">
          <mxGeometry x="-253.75" y="719.81" width="90" height="60" as="geometry" />
        </mxCell>
        <mxCell id="BTA8NvFiUSvUQII7Zmmq-62" value="&lt;font style=&quot;font-size: 16px;&quot;&gt;&lt;u&gt;ID_Izvještaj&lt;/u&gt;&lt;/font&gt;" style="ellipse;whiteSpace=wrap;html=1;fontSize=24;" parent="1" vertex="1">
          <mxGeometry x="-261.39" y="309.81" width="105.29" height="70.19" as="geometry" />
        </mxCell>
        <mxCell id="BTA8NvFiUSvUQII7Zmmq-69" value="&lt;span style=&quot;font-size: 20px;&quot;&gt;N&lt;/span&gt;" style="text;html=1;align=center;verticalAlign=middle;resizable=0;points=[];autosize=1;strokeColor=none;fillColor=none;" parent="1" vertex="1">
          <mxGeometry x="112.5" y="550" width="40" height="40" as="geometry" />
        </mxCell>
        <mxCell id="BTA8NvFiUSvUQII7Zmmq-70" value="&lt;font style=&quot;font-size: 20px;&quot;&gt;1&lt;/font&gt;" style="text;html=1;align=center;verticalAlign=middle;resizable=0;points=[];autosize=1;strokeColor=none;fillColor=none;" parent="1" vertex="1">
          <mxGeometry x="250" y="550" width="30" height="40" as="geometry" />
        </mxCell>
        <mxCell id="JX47b9BLDOJrQKx_DXfN-4" style="edgeStyle=orthogonalEdgeStyle;rounded=1;orthogonalLoop=1;jettySize=auto;html=1;entryX=0.25;entryY=0;entryDx=0;entryDy=0;endArrow=none;endFill=0;" parent="1" source="JX47b9BLDOJrQKx_DXfN-3" target="BTA8NvFiUSvUQII7Zmmq-58" edge="1">
          <mxGeometry relative="1" as="geometry" />
        </mxCell>
        <mxCell id="JX47b9BLDOJrQKx_DXfN-3" value="&lt;font style=&quot;font-size: 16px;&quot;&gt;DATUM&lt;/font&gt;" style="ellipse;whiteSpace=wrap;html=1;fontSize=24;" parent="1" vertex="1">
          <mxGeometry x="-262.65" y="390" width="105.29" height="70.19" as="geometry" />
        </mxCell>
        <mxCell id="JX47b9BLDOJrQKx_DXfN-5" value="&lt;font style=&quot;font-size: 20px;&quot;&gt;R&lt;/font&gt;" style="text;whiteSpace=wrap;html=1;" parent="1" vertex="1">
          <mxGeometry x="353.24" y="810" width="22.5" height="40" as="geometry" />
        </mxCell>
        <mxCell id="JX47b9BLDOJrQKx_DXfN-6" value="" style="edgeStyle=orthogonalEdgeStyle;rounded=0;orthogonalLoop=1;jettySize=auto;html=1;strokeColor=none;" parent="1" source="D_cj9iEXtC5JJuqYHNEy-1" target="JX47b9BLDOJrQKx_DXfN-2" edge="1">
          <mxGeometry relative="1" as="geometry">
            <Array as="points" />
            <mxPoint x="450" y="620" as="sourcePoint" />
            <mxPoint x="603" y="820" as="targetPoint" />
          </mxGeometry>
        </mxCell>
        <mxCell id="JX47b9BLDOJrQKx_DXfN-2" value="&lt;font style=&quot;font-size: 20px;&quot;&gt;1&lt;/font&gt;" style="text;whiteSpace=wrap;html=1;" parent="1" vertex="1">
          <mxGeometry x="591.76" y="780" width="20.74" height="40" as="geometry" />
        </mxCell>
        <mxCell id="JX47b9BLDOJrQKx_DXfN-7" value="&lt;font style=&quot;font-size: 20px;&quot;&gt;N&lt;/font&gt;" style="text;html=1;align=center;verticalAlign=middle;resizable=0;points=[];autosize=1;strokeColor=none;fillColor=none;" parent="1" vertex="1">
          <mxGeometry x="473.24" y="350" width="40" height="40" as="geometry" />
        </mxCell>
        <mxCell id="JX47b9BLDOJrQKx_DXfN-20" style="edgeStyle=orthogonalEdgeStyle;rounded=1;orthogonalLoop=1;jettySize=auto;html=1;endArrow=none;endFill=0;" parent="1" source="JX47b9BLDOJrQKx_DXfN-9" target="JX47b9BLDOJrQKx_DXfN-15" edge="1">
          <mxGeometry relative="1" as="geometry" />
        </mxCell>
        <mxCell id="JX47b9BLDOJrQKx_DXfN-9" value="&lt;font style=&quot;font-size: 16px;&quot;&gt;VODI&lt;/font&gt;" style="rhombus;whiteSpace=wrap;html=1;fontSize=24;" parent="1" vertex="1">
          <mxGeometry x="1075" y="909.9999999999999" width="122.5" height="75.38" as="geometry" />
        </mxCell>
        <mxCell id="JX47b9BLDOJrQKx_DXfN-11" style="edgeStyle=orthogonalEdgeStyle;rounded=1;orthogonalLoop=1;jettySize=auto;html=1;fontSize=24;endArrow=none;endFill=0;" parent="1" source="JX47b9BLDOJrQKx_DXfN-15" target="JX47b9BLDOJrQKx_DXfN-19" edge="1">
          <mxGeometry relative="1" as="geometry" />
        </mxCell>
        <mxCell id="JX47b9BLDOJrQKx_DXfN-12" style="edgeStyle=orthogonalEdgeStyle;rounded=1;orthogonalLoop=1;jettySize=auto;html=1;fontSize=24;endArrow=none;endFill=0;" parent="1" source="JX47b9BLDOJrQKx_DXfN-15" target="JX47b9BLDOJrQKx_DXfN-17" edge="1">
          <mxGeometry relative="1" as="geometry" />
        </mxCell>
        <mxCell id="JX47b9BLDOJrQKx_DXfN-13" style="edgeStyle=orthogonalEdgeStyle;rounded=1;orthogonalLoop=1;jettySize=auto;html=1;fontSize=24;endArrow=none;endFill=0;" parent="1" source="JX47b9BLDOJrQKx_DXfN-15" target="JX47b9BLDOJrQKx_DXfN-18" edge="1">
          <mxGeometry relative="1" as="geometry">
            <Array as="points">
              <mxPoint x="1403.75" y="1090" />
              <mxPoint x="1488.75" y="1090" />
            </Array>
          </mxGeometry>
        </mxCell>
        <mxCell id="JX47b9BLDOJrQKx_DXfN-14" style="edgeStyle=orthogonalEdgeStyle;rounded=1;orthogonalLoop=1;jettySize=auto;html=1;entryX=0.5;entryY=0;entryDx=0;entryDy=0;endArrow=none;endFill=0;" parent="1" source="JX47b9BLDOJrQKx_DXfN-15" target="JX47b9BLDOJrQKx_DXfN-16" edge="1">
          <mxGeometry relative="1" as="geometry">
            <Array as="points">
              <mxPoint x="1340" y="1105" />
              <mxPoint x="1251" y="1105" />
            </Array>
          </mxGeometry>
        </mxCell>
        <mxCell id="JX47b9BLDOJrQKx_DXfN-15" value="&lt;font style=&quot;font-size: 16px&quot;&gt;VODITELJ&lt;/font&gt;" style="rounded=0;whiteSpace=wrap;html=1;fontSize=24;" parent="1" vertex="1">
          <mxGeometry x="1303.75" y="1010" width="120" height="60" as="geometry" />
        </mxCell>
        <mxCell id="JX47b9BLDOJrQKx_DXfN-16" value="&lt;u&gt;&lt;font style=&quot;font-size: 16px;&quot;&gt;OIB_Voditelja&lt;/font&gt;&lt;/u&gt;" style="ellipse;whiteSpace=wrap;html=1;fontSize=24;" parent="1" vertex="1">
          <mxGeometry x="1180" y="1140" width="141.25" height="70" as="geometry" />
        </mxCell>
        <mxCell id="JX47b9BLDOJrQKx_DXfN-17" value="&lt;font style=&quot;font-size: 16px;&quot;&gt;IME&lt;/font&gt;" style="ellipse;whiteSpace=wrap;html=1;fontSize=24;" parent="1" vertex="1">
          <mxGeometry x="1326.25" y="1150" width="75" height="50" as="geometry" />
        </mxCell>
        <mxCell id="JX47b9BLDOJrQKx_DXfN-18" value="&lt;font style=&quot;font-size: 16px;&quot;&gt;PREZIME&lt;/font&gt;" style="ellipse;whiteSpace=wrap;html=1;fontSize=24;" parent="1" vertex="1">
          <mxGeometry x="1448.75" y="1150" width="75" height="50" as="geometry" />
        </mxCell>
        <mxCell id="JX47b9BLDOJrQKx_DXfN-19" value="&lt;span style=&quot;font-size: 16px;&quot;&gt;SMJENA&lt;/span&gt;" style="ellipse;whiteSpace=wrap;html=1;fontSize=24;" parent="1" vertex="1">
          <mxGeometry x="1568.75" y="1150" width="75" height="50" as="geometry" />
        </mxCell>
        <mxCell id="JX47b9BLDOJrQKx_DXfN-21" value="&lt;font style=&quot;font-size: 20px;&quot;&gt;1&lt;/font&gt;" style="text;html=1;align=center;verticalAlign=middle;resizable=0;points=[];autosize=1;strokeColor=none;fillColor=none;" parent="1" vertex="1">
          <mxGeometry x="1040" y="900" width="30" height="40" as="geometry" />
        </mxCell>
        <mxCell id="JX47b9BLDOJrQKx_DXfN-22" value="&lt;font style=&quot;font-size: 20px;&quot;&gt;1&lt;/font&gt;" style="text;html=1;align=center;verticalAlign=middle;resizable=0;points=[];autosize=1;strokeColor=none;fillColor=none;" parent="1" vertex="1">
          <mxGeometry x="1202.5" y="900" width="30" height="40" as="geometry" />
        </mxCell>
        <mxCell id="JX47b9BLDOJrQKx_DXfN-23" value="&lt;font style=&quot;font-size: 16px;&quot;&gt;količina&lt;/font&gt;" style="ellipse;whiteSpace=wrap;html=1;fontSize=24;" parent="1" vertex="1">
          <mxGeometry x="1270" y="568.7" width="90" height="60" as="geometry" />
        </mxCell>
        <mxCell id="59wHrg0JcHNPSCHJGL91-2" value="&lt;font style=&quot;font-size: 16px;&quot;&gt;BROJ SJEDALA&lt;/font&gt;" style="ellipse;whiteSpace=wrap;html=1;fontSize=24;" vertex="1" parent="1">
          <mxGeometry x="880" y="-45" width="127.5" height="85" as="geometry" />
        </mxCell>
        <mxCell id="59wHrg0JcHNPSCHJGL91-5" style="edgeStyle=orthogonalEdgeStyle;rounded=1;orthogonalLoop=1;jettySize=auto;html=1;entryX=0.25;entryY=0;entryDx=0;entryDy=0;endArrow=none;endFill=0;" edge="1" parent="1" source="59wHrg0JcHNPSCHJGL91-4" target="D_cj9iEXtC5JJuqYHNEy-7">
          <mxGeometry relative="1" as="geometry">
            <Array as="points">
              <mxPoint x="-505" y="860" />
              <mxPoint x="39" y="860" />
            </Array>
          </mxGeometry>
        </mxCell>
        <mxCell id="59wHrg0JcHNPSCHJGL91-4" value="&lt;font style=&quot;font-size: 16px;&quot;&gt;JE_SLOBODNO&lt;/font&gt;" style="rhombus;whiteSpace=wrap;html=1;fontSize=24;" vertex="1" parent="1">
          <mxGeometry x="-575" y="474.08" width="140" height="100" as="geometry" />
        </mxCell>
        <mxCell id="59wHrg0JcHNPSCHJGL91-10" style="edgeStyle=orthogonalEdgeStyle;rounded=1;orthogonalLoop=1;jettySize=auto;html=1;entryX=0;entryY=0.5;entryDx=0;entryDy=0;endArrow=none;endFill=0;" edge="1" parent="1" source="59wHrg0JcHNPSCHJGL91-7" target="59wHrg0JcHNPSCHJGL91-4">
          <mxGeometry relative="1" as="geometry" />
        </mxCell>
        <mxCell id="59wHrg0JcHNPSCHJGL91-11" style="edgeStyle=orthogonalEdgeStyle;rounded=1;orthogonalLoop=1;jettySize=auto;html=1;exitX=0;exitY=0.25;exitDx=0;exitDy=0;entryX=0.5;entryY=1;entryDx=0;entryDy=0;endArrow=none;endFill=0;" edge="1" parent="1" source="59wHrg0JcHNPSCHJGL91-7" target="59wHrg0JcHNPSCHJGL91-8">
          <mxGeometry relative="1" as="geometry" />
        </mxCell>
        <mxCell id="59wHrg0JcHNPSCHJGL91-12" style="edgeStyle=orthogonalEdgeStyle;rounded=1;orthogonalLoop=1;jettySize=auto;html=1;exitX=0;exitY=0.75;exitDx=0;exitDy=0;endArrow=none;endFill=0;" edge="1" parent="1" source="59wHrg0JcHNPSCHJGL91-7" target="59wHrg0JcHNPSCHJGL91-9">
          <mxGeometry relative="1" as="geometry" />
        </mxCell>
        <mxCell id="59wHrg0JcHNPSCHJGL91-16" style="edgeStyle=orthogonalEdgeStyle;rounded=1;orthogonalLoop=1;jettySize=auto;html=1;exitX=0.5;exitY=0;exitDx=0;exitDy=0;entryX=0.5;entryY=1;entryDx=0;entryDy=0;endArrow=none;endFill=0;" edge="1" parent="1" source="59wHrg0JcHNPSCHJGL91-7" target="59wHrg0JcHNPSCHJGL91-15">
          <mxGeometry relative="1" as="geometry" />
        </mxCell>
        <mxCell id="59wHrg0JcHNPSCHJGL91-17" style="edgeStyle=orthogonalEdgeStyle;rounded=1;orthogonalLoop=1;jettySize=auto;html=1;exitX=0.5;exitY=1;exitDx=0;exitDy=0;entryX=0.5;entryY=0;entryDx=0;entryDy=0;endArrow=none;endFill=0;" edge="1" parent="1" source="59wHrg0JcHNPSCHJGL91-7" target="59wHrg0JcHNPSCHJGL91-14">
          <mxGeometry relative="1" as="geometry" />
        </mxCell>
        <mxCell id="59wHrg0JcHNPSCHJGL91-7" value="&lt;font style=&quot;font-size: 16px&quot;&gt;MJESTO&lt;/font&gt;" style="rounded=0;whiteSpace=wrap;html=1;fontSize=24;" vertex="1" parent="1">
          <mxGeometry x="-755" y="494.08" width="120" height="60" as="geometry" />
        </mxCell>
        <mxCell id="59wHrg0JcHNPSCHJGL91-8" value="&lt;font style=&quot;font-size: 16px;&quot;&gt;&lt;u&gt;ID_Mjesta&lt;/u&gt;&lt;/font&gt;" style="ellipse;whiteSpace=wrap;html=1;fontSize=24;" vertex="1" parent="1">
          <mxGeometry x="-880" y="403.32" width="105.29" height="70.19" as="geometry" />
        </mxCell>
        <mxCell id="59wHrg0JcHNPSCHJGL91-9" value="&lt;font style=&quot;font-size: 16px;&quot;&gt;STANJE&lt;/font&gt;" style="ellipse;whiteSpace=wrap;html=1;fontSize=24;" vertex="1" parent="1">
          <mxGeometry x="-880" y="574.08" width="105.29" height="70.19" as="geometry" />
        </mxCell>
        <mxCell id="59wHrg0JcHNPSCHJGL91-13" value="&lt;span style=&quot;font-size: 20px;&quot;&gt;N&lt;/span&gt;" style="text;html=1;align=center;verticalAlign=middle;resizable=0;points=[];autosize=1;strokeColor=none;fillColor=none;" vertex="1" parent="1">
          <mxGeometry x="-615" y="488.7" width="40" height="40" as="geometry" />
        </mxCell>
        <mxCell id="59wHrg0JcHNPSCHJGL91-14" value="&lt;font style=&quot;font-size: 16px;&quot;&gt;BROJ SJEDALA&lt;/font&gt;" style="ellipse;whiteSpace=wrap;html=1;fontSize=24;" vertex="1" parent="1">
          <mxGeometry x="-762.36" y="608.7" width="134.72" height="89.81" as="geometry" />
        </mxCell>
        <mxCell id="59wHrg0JcHNPSCHJGL91-15" value="&lt;font style=&quot;font-size: 16px;&quot;&gt;RED SJEDALA&lt;/font&gt;" style="ellipse;whiteSpace=wrap;html=1;fontSize=24;" vertex="1" parent="1">
          <mxGeometry x="-762.36" y="350" width="135.16" height="90.1" as="geometry" />
        </mxCell>
        <mxCell id="59wHrg0JcHNPSCHJGL91-18" value="&lt;span style=&quot;font-size: 20px;&quot;&gt;1&lt;/span&gt;" style="text;html=1;align=center;verticalAlign=middle;resizable=0;points=[];autosize=1;strokeColor=none;fillColor=none;" vertex="1" parent="1">
          <mxGeometry x="-490" y="578.7" width="30" height="40" as="geometry" />
        </mxCell>
        <mxCell id="59wHrg0JcHNPSCHJGL91-19" value="&lt;span style=&quot;font-size: 20px;&quot;&gt;1&lt;/span&gt;" style="text;html=1;align=center;verticalAlign=middle;resizable=0;points=[];autosize=1;strokeColor=none;fillColor=none;" vertex="1" parent="1">
          <mxGeometry x="-490" y="428.7" width="30" height="40" as="geometry" />
        </mxCell>
      </root>
    </mxGraphModel>
  </diagram>
</mxfile>
